<svg width="32" height="23" viewBox="0 0 32 23" fill="none" xmlns="http://www.w3.org/2000/svg">
<path d="M22.7352 17.9839L22.7347 17.9842C22.251 18.287 21.847 18.521 21.5629 18.6812C21.4353 18.7529 21.3057 18.8235 21.1753 18.893L21.1143 18.9244C21.079 18.9425 21.0398 18.952 21 18.952C20.9606 18.952 20.9218 18.9427 20.8867 18.9249C20.7356 18.846 20.5857 18.7648 20.4372 18.6812C18.7627 17.7367 17.1809 16.6367 15.7125 15.3958C13.1403 13.2049 10.5 10.0937 10.5 6.513C10.5 3.32814 13.1051 1 15.736 1C17.8314 1 19.5295 2.11298 20.5704 3.86083L20.9998 4.58187L21.4295 3.861C22.4715 2.11288 24.1687 1 26.264 1C28.8939 1 31.5 3.32814 31.5 6.514C31.5 10.0947 28.8587 13.207 26.2875 15.3947C25.1669 16.3417 23.9798 17.207 22.7352 17.9839Z" fill="white" stroke="#333333"/>
<path d="M12.7352 21.4839L12.7347 21.4842C12.251 21.787 11.847 22.021 11.5629 22.1812C11.4353 22.2529 11.3057 22.3235 11.1753 22.393L11.1143 22.4244C11.079 22.4425 11.0398 22.452 11 22.452C10.9606 22.452 10.9218 22.4427 10.8867 22.4249C10.7356 22.346 10.5857 22.2648 10.4372 22.1812C8.76273 21.2367 7.18089 20.1367 5.71255 18.8958C3.14027 16.7049 0.5 13.5937 0.5 10.013C0.5 6.82814 3.10514 4.5 5.736 4.5C7.83141 4.5 9.52951 5.61298 10.5704 7.36083L10.9998 8.08187L11.4295 7.361C12.4715 5.61288 14.1687 4.5 16.264 4.5C18.8939 4.5 21.5 6.82814 21.5 10.014C21.5 13.5947 18.8587 16.707 16.2875 18.8947C15.1669 19.8417 13.9798 20.707 12.7352 21.4839Z" fill="#F8305F" stroke="#333333"/>
</svg>
