<svg width="38" height="26" viewBox="0 0 38 26" fill="none" xmlns="http://www.w3.org/2000/svg">
<path d="M25.7352 19.4839L25.7347 19.4842C25.251 19.787 24.847 20.021 24.5629 20.1812C24.4353 20.2529 24.3057 20.3235 24.1753 20.393L24.1143 20.4244C24.079 20.4425 24.0398 20.452 24 20.452C23.9606 20.452 23.9218 20.4427 23.8867 20.4249C23.7356 20.346 23.5857 20.2648 23.4372 20.1812C21.7627 19.2367 20.1809 18.1367 18.7125 16.8958C16.1403 14.7049 13.5 11.5937 13.5 8.013C13.5 4.82814 16.1051 2.5 18.736 2.5C20.8314 2.5 22.5295 3.61298 23.5704 5.36083L23.9998 6.08187L24.4295 5.361C25.4715 3.61288 27.1687 2.5 29.264 2.5C31.8939 2.5 34.5 4.82814 34.5 8.014C34.5 11.5947 31.8587 14.707 29.2875 16.8947C28.1669 17.8417 26.9798 18.707 25.7352 19.4839Z" fill="white" stroke="#333333"/>
<path d="M15.7352 22.9839L15.7347 22.9842C15.251 23.287 14.847 23.521 14.5629 23.6812C14.4353 23.7529 14.3057 23.8235 14.1753 23.893L14.1143 23.9244C14.079 23.9425 14.0398 23.952 14 23.952C13.9606 23.952 13.9218 23.9427 13.8867 23.9249C13.7356 23.846 13.5857 23.7648 13.4372 23.6812C11.7627 22.7367 10.1809 21.6367 8.71255 20.3958C6.14027 18.2049 3.5 15.0937 3.5 11.513C3.5 8.32814 6.10514 6 8.736 6C10.8314 6 12.5295 7.11298 13.5704 8.86083L13.9998 9.58187L14.4295 8.861C15.4715 7.11288 17.1687 6 19.264 6C21.8939 6 24.5 8.32814 24.5 11.514C24.5 15.0947 21.8587 18.207 19.2875 20.3947C18.1669 21.3417 16.9798 22.207 15.7352 22.9839Z" fill="#F8305F" stroke="#333333"/>
</svg>
