<svg id="visual" viewBox="0 0 900 600" width="900" height="600" xmlns="http://www.w3.org/2000/svg" xmlns:xlink="http://www.w3.org/1999/xlink" version="1.1"><rect width="900" height="600" fill="#f9fafb"></rect><g><g transform="translate(424 556)"><path d="M94.5 -71.6C116.3 -48.1 123.4 -9.1 115.3 26.2C107.1 61.5 83.7 93.3 51.8 109.2C20 125.1 -20.2 125.3 -50.5 109.1C-80.8 92.9 -101.1 60.3 -107.4 26.4C-113.7 -7.5 -105.8 -42.8 -85.5 -66C-65.3 -89.1 -32.6 -100.1 1.9 -101.6C36.4 -103.1 72.7 -95.1 94.5 -71.6Z" stroke="#e9425d" stroke-opacity="0.5" fill="none" stroke-width="6"></path></g><g transform="translate(225 124)"><path d="M45.9 -37.5C55.5 -24.6 56.4 -5.8 52 11.1C47.5 27.9 37.6 42.6 23.4 50.1C9.1 57.6 -9.4 57.7 -24.4 50.5C-39.5 43.3 -51.1 28.8 -55.5 12C-59.9 -4.9 -57.1 -24.1 -46.7 -37.2C-36.2 -50.4 -18.1 -57.4 0 -57.5C18.2 -57.5 36.3 -50.5 45.9 -37.5Z" stroke="#e9425d" stroke-opacity="0.5" fill="none" stroke-width="6"></path></g><g transform="translate(873 101)"><path d="M55.1 -42.5C67.6 -28.2 71.3 -5.5 65.4 12.7C59.5 31 43.9 44.9 26.2 52.7C8.5 60.5 -11.2 62.4 -26.4 55C-41.7 47.6 -52.5 31 -57.1 12.6C-61.6 -5.9 -60 -26.2 -49.4 -40.1C-38.9 -53.9 -19.4 -61.3 0.9 -62.1C21.3 -62.8 42.5 -56.8 55.1 -42.5Z" stroke="#e9425d" stroke-opacity="0.5" fill="none" stroke-width="6"></path></g><g transform="translate(723 477)"><path d="M77.1 -60.6C95.4 -38.5 102.6 -6.7 95 19.6C87.3 46 64.8 66.9 37.6 81.2C10.4 95.6 -21.6 103.3 -45.7 92.6C-69.8 81.9 -86.2 52.6 -89.6 24.3C-93 -4.1 -83.6 -31.6 -66.5 -53.4C-49.4 -75.2 -24.7 -91.2 2.3 -93.1C29.4 -95 58.8 -82.6 77.1 -60.6Z" stroke="#e9425d" stroke-opacity="0.5" fill="none" stroke-width="6"></path></g><g transform="translate(13 403)"><path d="M74.1 -60.1C94 -34.2 106.6 -3.5 101.4 24.6C96.1 52.6 73 78.1 43.7 93C14.4 108 -20.9 112.5 -50.9 100.2C-80.9 87.9 -105.4 58.8 -110.6 27.6C-115.9 -3.6 -101.8 -36.8 -80.2 -63.2C-58.5 -89.6 -29.3 -109.1 -1.1 -108.2C27.1 -107.4 54.2 -86.1 74.1 -60.1Z" stroke="#e9425d" stroke-opacity="0.5" fill="none" stroke-width="6"></path></g><g transform="translate(575 161)"><path d="M60.2 -46.2C76.5 -27.6 87.2 -2.6 83.1 20.5C79.1 43.7 60.4 65.1 36.9 76.3C13.4 87.5 -14.9 88.6 -37.8 77.8C-60.6 67 -78.1 44.4 -83.8 19.2C-89.4 -6 -83.3 -33.7 -67.4 -52.3C-51.4 -70.8 -25.7 -80.1 -1.9 -78.6C21.9 -77.1 43.9 -64.8 60.2 -46.2Z" stroke="#e9425d" stroke-opacity="0.5" fill="none" stroke-width="6"></path></g></g></svg>
