<svg width="700" height="300" viewBox="0 0 700 300" fill="none" xmlns="http://www.w3.org/2000/svg">
<rect width="700" height="300" rx="4" fill="#F8305F"/>
<path d="M167.956 221.09C165.195 221.09 162.869 220.145 160.98 218.256C159.091 216.367 158.146 214.041 158.146 211.28V76.774C158.146 74.0127 159.091 71.6873 160.98 69.798C162.869 67.7633 165.195 66.746 167.956 66.746C170.717 66.746 173.043 67.7633 174.932 69.798C176.967 71.6873 177.984 74.0127 177.984 76.774V134.762H260.606V76.774C260.606 74.0127 261.551 71.6873 263.44 69.798C265.329 67.7633 267.655 66.746 270.416 66.746C273.177 66.746 275.503 67.7633 277.392 69.798C279.427 71.6873 280.444 74.0127 280.444 76.774V211.28C280.444 214.041 279.427 216.367 277.392 218.256C275.503 220.145 273.177 221.09 270.416 221.09C267.655 221.09 265.329 220.145 263.44 218.256C261.551 216.367 260.606 214.041 260.606 211.28V153.292H177.984V211.28C177.984 214.041 176.967 216.367 174.932 218.256C173.043 220.145 170.717 221.09 167.956 221.09ZM370.452 222.18C358.244 222.18 348.144 220.073 340.15 215.858C332.157 211.498 326.271 205.903 322.492 199.072C318.859 192.241 317.042 184.975 317.042 177.272C317.042 167.389 319.586 158.96 324.672 151.984C329.904 144.863 335.572 139.34 341.676 135.416C337.316 130.184 333.974 125.17 331.648 120.374C329.468 115.578 328.378 110.055 328.378 103.806C328.378 96.83 329.977 90.4353 333.174 84.622C336.517 78.8087 341.24 74.2307 347.344 70.888C353.594 67.4 360.86 65.656 369.144 65.656C378.882 65.656 388.546 68.8533 398.138 75.248C399.156 75.8293 400.028 76.774 400.754 78.082C401.626 79.2447 402.062 80.48 402.062 81.788C402.062 83.8227 401.336 85.6393 399.882 87.238C398.429 88.6913 396.612 89.418 394.432 89.418C393.27 89.418 391.962 89.0547 390.508 88.328C383.532 84.5493 376.702 82.66 370.016 82.66C362.75 82.66 357.009 84.6947 352.794 88.764C348.725 92.688 346.69 97.3387 346.69 102.716C346.69 106.931 347.344 110.637 348.652 113.834C350.106 117.031 352.213 120.156 354.974 123.208C357.736 126.26 362.241 130.693 368.49 136.506L414.052 179.452C416.087 176.545 418.485 172.113 421.246 166.154C421.973 164.555 423.063 163.247 424.516 162.23C426.115 161.213 427.859 160.704 429.748 160.704C432.364 160.704 434.544 161.576 436.288 163.32C438.032 164.919 438.904 167.026 438.904 169.642C438.904 171.095 438.541 172.549 437.814 174.002C434.908 180.251 431.42 186.21 427.35 191.878L441.956 205.83C443.119 206.847 443.991 207.865 444.572 208.882C445.154 209.899 445.444 211.207 445.444 212.806C445.444 215.277 444.645 217.384 443.046 219.128C441.448 220.872 439.268 221.744 436.506 221.744C433.89 221.744 431.638 220.872 429.748 219.128L415.142 205.176C408.893 210.408 401.99 214.55 394.432 217.602C386.875 220.654 378.882 222.18 370.452 222.18ZM368.708 205.394C381.062 205.394 392.252 201.325 402.28 193.186L353.666 147.624C348.725 150.821 344.51 154.963 341.022 160.05C337.534 165.137 335.79 171.095 335.79 177.926C335.79 185.919 338.915 192.532 345.164 197.764C351.559 202.851 359.407 205.394 368.708 205.394ZM497.856 222.18C487.247 222.18 477.582 219.709 468.862 214.768C465.665 212.879 464.066 210.19 464.066 206.702C464.066 204.377 464.793 202.342 466.246 200.598C467.845 198.709 469.88 197.764 472.35 197.764C473.804 197.764 475.112 198.055 476.274 198.636C482.96 201.833 489.718 203.432 496.548 203.432C504.396 203.432 510.718 201.179 515.514 196.674C520.456 192.169 522.926 183.667 522.926 171.168V76.774C522.926 74.0127 523.871 71.6873 525.76 69.798C527.65 67.7633 529.975 66.746 532.736 66.746C535.498 66.746 537.823 67.7633 539.712 69.798C541.747 71.6873 542.764 74.0127 542.764 76.774V169.86C542.764 188.899 538.477 202.415 529.902 210.408C521.473 218.256 510.791 222.18 497.856 222.18Z" fill="white"/>
</svg>
