<svg width="700" height="300" viewBox="0 0 700 300" fill="none" xmlns="http://www.w3.org/2000/svg">
<rect width="700" height="300" rx="4" fill="#F8305F"/>
<path d="M192.106 239.18C173.649 239.18 156.354 235.692 140.222 228.716C138.478 227.989 137.025 226.827 135.862 225.228C134.699 223.484 134.118 221.667 134.118 219.778C134.118 217.307 134.917 215.2 136.516 213.456C138.26 211.567 140.44 210.622 143.056 210.622C144.509 210.622 145.89 210.913 147.198 211.494C160.569 217.453 174.884 220.432 190.144 220.432C215.577 220.432 228.294 212.075 228.294 195.362C228.294 191.002 226.623 187.369 223.28 184.462C220.083 181.555 216.086 179.303 211.29 177.704C206.494 175.96 199.663 173.925 190.798 171.6C179.026 168.548 169.507 165.641 162.24 162.88C154.973 159.973 148.724 155.686 143.492 150.018C138.26 144.35 135.644 136.793 135.644 127.346C135.644 119.062 137.824 111.577 142.184 104.892C146.544 98.0613 152.939 92.684 161.368 88.76C169.943 84.6907 180.189 82.656 192.106 82.656C208.093 82.656 222.553 85.054 235.488 89.85C239.557 91.3033 241.592 94.21 241.592 98.57C241.592 100.895 240.793 103.003 239.194 104.892C237.595 106.781 235.488 107.726 232.872 107.726C232 107.726 230.837 107.435 229.384 106.854C218.048 102.93 206.349 100.968 194.286 100.968C182.805 100.968 173.431 103.148 166.164 107.508C159.043 111.868 155.482 117.972 155.482 125.82C155.482 131.052 157.153 135.339 160.496 138.682C163.984 141.879 168.271 144.423 173.358 146.312C178.59 148.056 185.639 149.945 194.504 151.98C205.985 154.741 215.214 157.503 222.19 160.264C229.311 163.025 235.343 167.313 240.284 173.126C245.371 178.939 247.914 186.787 247.914 196.67C247.914 204.809 245.589 212.148 240.938 218.688C236.287 225.083 229.747 230.097 221.318 233.73C212.889 237.363 203.151 239.18 192.106 239.18ZM326.222 239.18C314.014 239.18 303.913 237.073 295.92 232.858C287.927 228.498 282.041 222.903 278.262 216.072C274.629 209.241 272.812 201.975 272.812 194.272C272.812 184.389 275.355 175.96 280.442 168.984C285.674 161.863 291.342 156.34 297.446 152.416C293.086 147.184 289.743 142.17 287.418 137.374C285.238 132.578 284.148 127.055 284.148 120.806C284.148 113.83 285.747 107.435 288.944 101.622C292.287 95.8087 297.01 91.2307 303.114 87.888C309.363 84.4 316.63 82.656 324.914 82.656C334.651 82.656 344.316 85.8533 353.908 92.248C354.925 92.8293 355.797 93.774 356.524 95.082C357.396 96.2447 357.832 97.48 357.832 98.788C357.832 100.823 357.105 102.639 355.652 104.238C354.199 105.691 352.382 106.418 350.202 106.418C349.039 106.418 347.731 106.055 346.278 105.328C339.302 101.549 332.471 99.66 325.786 99.66C318.519 99.66 312.779 101.695 308.564 105.764C304.495 109.688 302.46 114.339 302.46 119.716C302.46 123.931 303.114 127.637 304.422 130.834C305.875 134.031 307.983 137.156 310.744 140.208C313.505 143.26 318.011 147.693 324.26 153.506L369.822 196.452C371.857 193.545 374.255 189.113 377.016 183.154C377.743 181.555 378.833 180.247 380.286 179.23C381.885 178.213 383.629 177.704 385.518 177.704C388.134 177.704 390.314 178.576 392.058 180.32C393.802 181.919 394.674 184.026 394.674 186.642C394.674 188.095 394.311 189.549 393.584 191.002C390.677 197.251 387.189 203.21 383.12 208.878L397.726 222.83C398.889 223.847 399.761 224.865 400.342 225.882C400.923 226.899 401.214 228.207 401.214 229.806C401.214 232.277 400.415 234.384 398.816 236.128C397.217 237.872 395.037 238.744 392.276 238.744C389.66 238.744 387.407 237.872 385.518 236.128L370.912 222.176C364.663 227.408 357.759 231.55 350.202 234.602C342.645 237.654 334.651 239.18 326.222 239.18ZM324.478 222.394C336.831 222.394 348.022 218.325 358.05 210.186L309.436 164.624C304.495 167.821 300.28 171.963 296.792 177.05C293.304 182.137 291.56 188.095 291.56 194.926C291.56 202.919 294.685 209.532 300.934 214.764C307.329 219.851 315.177 222.394 324.478 222.394ZM447.958 237C445.197 237 442.871 236.055 440.982 234.166C439.093 232.277 438.148 229.951 438.148 227.19V94.864C438.148 92.1027 439.093 89.7773 440.982 87.888C442.871 85.8533 445.197 84.836 447.958 84.836H499.406C514.957 84.836 526.947 88.3967 535.376 95.518C543.951 102.639 548.238 112.231 548.238 124.294C548.238 132.723 546.203 139.772 542.134 145.44C538.21 150.963 533.123 155.105 526.874 157.866C535.594 160.627 542.715 165.06 548.238 171.164C553.906 177.268 556.74 184.971 556.74 194.272C556.74 207.643 552.235 218.107 543.224 225.664C534.213 233.221 520.043 237 500.714 237H447.958ZM494.174 150.672C507.109 150.672 516.192 148.492 521.424 144.132C526.656 139.772 529.272 133.668 529.272 125.82C529.272 118.989 526.438 113.539 520.77 109.47C515.247 105.401 507.617 103.366 497.88 103.366H457.986V150.672H494.174ZM498.752 218.47C512.849 218.47 522.805 216.29 528.618 211.93C534.577 207.57 537.556 201.393 537.556 193.4C537.556 176.832 524.694 168.548 498.97 168.548H457.986V218.47H498.752Z" fill="white"/>
</svg>
